<svg width="16" height="16" viewBox="0 0 16 16" fill="none" xmlns="http://www.w3.org/2000/svg">
<path d="M14.2667 9.50004L9.5 14.2667C9.36667 14.4 9.21667 14.5 9.05 14.5667C8.88333 14.6334 8.71667 14.6667 8.55 14.6667C8.38333 14.6667 8.21667 14.6334 8.05 14.5667C7.88333 14.5 7.73333 14.4 7.6 14.2667L1.71667 8.38337C1.59445 8.26115 1.5 8.11948 1.43333 7.95837C1.36667 7.79726 1.33333 7.62782 1.33333 7.45004V2.66671C1.33333 2.30004 1.46389 1.98615 1.725 1.72504C1.98611 1.46393 2.3 1.33337 2.66667 1.33337H7.45C7.62778 1.33337 7.8 1.36949 7.96667 1.44171C8.13333 1.51393 8.27778 1.61115 8.4 1.73337L14.2667 7.61671C14.4 7.75004 14.4972 7.90004 14.5583 8.06671C14.6194 8.23337 14.65 8.40004 14.65 8.56671C14.65 8.73337 14.6194 8.89726 14.5583 9.05837C14.4972 9.21948 14.4 9.36671 14.2667 9.50004ZM8.55 13.3334L13.3167 8.56671L7.43333 2.66671H2.66667V7.43337L8.55 13.3334ZM4.33333 5.33337C4.61111 5.33337 4.84722 5.23615 5.04167 5.04171C5.23611 4.84726 5.33333 4.61115 5.33333 4.33337C5.33333 4.0556 5.23611 3.81948 5.04167 3.62504C4.84722 3.4306 4.61111 3.33337 4.33333 3.33337C4.05556 3.33337 3.81944 3.4306 3.625 3.62504C3.43056 3.81948 3.33333 4.0556 3.33333 4.33337C3.33333 4.61115 3.43056 4.84726 3.625 5.04171C3.81944 5.23615 4.05556 5.33337 4.33333 5.33337Z" fill="url(#paint0_linear_1_518)"/>
<defs>
<linearGradient id="paint0_linear_1_518" x1="3.42595" y1="2.76195" x2="12.0963" y2="15.0374" gradientUnits="userSpaceOnUse">
<stop stop-color="#FF7143"/>
<stop offset="0.494792" stop-color="#FFA827"/>
<stop offset="0.953135" stop-color="#FFC928"/>
</linearGradient>
</defs>
</svg>
