<svg width="16" height="16" viewBox="0 0 16 16" fill="none" xmlns="http://www.w3.org/2000/svg">
<path d="M8.66658 7.73203V5.33203C8.66658 5.14314 8.6027 4.98481 8.47492 4.85703C8.34714 4.72925 8.18881 4.66536 7.99992 4.66536C7.81103 4.66536 7.6527 4.72925 7.52492 4.85703C7.39714 4.98481 7.33325 5.14314 7.33325 5.33203V7.98203C7.33325 8.07092 7.34992 8.15703 7.38325 8.24036C7.41658 8.3237 7.46659 8.3987 7.53325 8.46536L9.73325 10.6654C9.85547 10.7876 10.011 10.8487 10.1999 10.8487C10.3888 10.8487 10.5444 10.7876 10.6666 10.6654C10.7888 10.5431 10.8499 10.3876 10.8499 10.1987C10.8499 10.0098 10.7888 9.85425 10.6666 9.73203L8.66658 7.73203ZM7.99992 14.6654C7.0777 14.6654 6.21103 14.4904 5.39992 14.1404C4.58881 13.7904 3.88325 13.3154 3.28325 12.7154C2.68325 12.1154 2.20825 11.4098 1.85825 10.5987C1.50825 9.78759 1.33325 8.92092 1.33325 7.9987C1.33325 7.07648 1.50825 6.20981 1.85825 5.3987C2.20825 4.58759 2.68325 3.88203 3.28325 3.28203C3.88325 2.68203 4.58881 2.20703 5.39992 1.85703C6.21103 1.50703 7.0777 1.33203 7.99992 1.33203C8.92214 1.33203 9.78881 1.50703 10.5999 1.85703C11.411 2.20703 12.1166 2.68203 12.7166 3.28203C13.3166 3.88203 13.7916 4.58759 14.1416 5.3987C14.4916 6.20981 14.6666 7.07648 14.6666 7.9987C14.6666 8.92092 14.4916 9.78759 14.1416 10.5987C13.7916 11.4098 13.3166 12.1154 12.7166 12.7154C12.1166 13.3154 11.411 13.7904 10.5999 14.1404C9.78881 14.4904 8.92214 14.6654 7.99992 14.6654ZM7.99992 13.332C9.4777 13.332 10.736 12.8126 11.7749 11.7737C12.8138 10.7348 13.3333 9.47647 13.3333 7.9987C13.3333 6.52092 12.8138 5.26259 11.7749 4.2237C10.736 3.18481 9.4777 2.66536 7.99992 2.66536C6.52214 2.66536 5.26381 3.18481 4.22492 4.2237C3.18603 5.26259 2.66659 6.52092 2.66659 7.9987C2.66659 9.47647 3.18603 10.7348 4.22492 11.7737C5.26381 12.8126 6.52214 13.332 7.99992 13.332Z" fill="url(#paint0_linear_1_1129)"/>
<defs>
<linearGradient id="paint0_linear_1_1129" x1="3.42849" y1="2.7606" x2="12.0952" y2="15.0463" gradientUnits="userSpaceOnUse">
<stop stop-color="#3F51B5"/>
<stop offset="0.494792" stop-color="#5C6CC1"/>
<stop offset="0.953135" stop-color="#7887CC"/>
</linearGradient>
</defs>
</svg>
