<svg width="16" height="16" viewBox="0 0 16 16" fill="none" xmlns="http://www.w3.org/2000/svg">
<path d="M0.666666 11.4667C0.666666 11.0889 0.763888 10.7417 0.958333 10.425C1.15278 10.1084 1.41111 9.86669 1.73333 9.70002C2.42222 9.35558 3.12222 9.09724 3.83333 8.92502C4.54444 8.7528 5.26667 8.66669 6 8.66669C6.73333 8.66669 7.45556 8.7528 8.16667 8.92502C8.87778 9.09724 9.57778 9.35558 10.2667 9.70002C10.5889 9.86669 10.8472 10.1084 11.0417 10.425C11.2361 10.7417 11.3333 11.0889 11.3333 11.4667V12C11.3333 12.3667 11.2028 12.6806 10.9417 12.9417C10.6806 13.2028 10.3667 13.3334 10 13.3334H2C1.63333 13.3334 1.31944 13.2028 1.05833 12.9417C0.797222 12.6806 0.666666 12.3667 0.666666 12V11.4667ZM14 13.3334H12.3C12.4222 13.1334 12.5139 12.9195 12.575 12.6917C12.6361 12.4639 12.6667 12.2334 12.6667 12V11.3334C12.6667 10.8445 12.5306 10.375 12.2583 9.92502C11.9861 9.47502 11.6 9.08891 11.1 8.76669C11.6667 8.83335 12.2 8.94724 12.7 9.10835C13.2 9.26946 13.6667 9.46669 14.1 9.70002C14.5 9.92224 14.8056 10.1695 15.0167 10.4417C15.2278 10.7139 15.3333 11.0111 15.3333 11.3334V12C15.3333 12.3667 15.2028 12.6806 14.9417 12.9417C14.6806 13.2028 14.3667 13.3334 14 13.3334ZM6 8.00002C5.26667 8.00002 4.63889 7.73891 4.11667 7.21669C3.59444 6.69447 3.33333 6.06669 3.33333 5.33335C3.33333 4.60002 3.59444 3.97224 4.11667 3.45002C4.63889 2.9278 5.26667 2.66669 6 2.66669C6.73333 2.66669 7.36111 2.9278 7.88333 3.45002C8.40556 3.97224 8.66667 4.60002 8.66667 5.33335C8.66667 6.06669 8.40556 6.69447 7.88333 7.21669C7.36111 7.73891 6.73333 8.00002 6 8.00002ZM12.6667 5.33335C12.6667 6.06669 12.4056 6.69447 11.8833 7.21669C11.3611 7.73891 10.7333 8.00002 10 8.00002C9.87778 8.00002 9.72222 7.98613 9.53333 7.95835C9.34444 7.93058 9.18889 7.90002 9.06667 7.86669C9.36667 7.51113 9.59722 7.11669 9.75833 6.68335C9.91944 6.25002 10 5.80002 10 5.33335C10 4.86669 9.91944 4.41669 9.75833 3.98335C9.59722 3.55002 9.36667 3.15558 9.06667 2.80002C9.22222 2.74446 9.37778 2.70835 9.53333 2.69169C9.68889 2.67502 9.84444 2.66669 10 2.66669C10.7333 2.66669 11.3611 2.9278 11.8833 3.45002C12.4056 3.97224 12.6667 4.60002 12.6667 5.33335ZM2 12H10V11.4667C10 11.3445 9.96944 11.2334 9.90833 11.1334C9.84722 11.0334 9.76667 10.9556 9.66667 10.9C9.06667 10.6 8.46111 10.375 7.85 10.225C7.23889 10.075 6.62222 10 6 10C5.37778 10 4.76111 10.075 4.15 10.225C3.53889 10.375 2.93333 10.6 2.33333 10.9C2.23333 10.9556 2.15278 11.0334 2.09167 11.1334C2.03056 11.2334 2 11.3445 2 11.4667V12ZM6 6.66669C6.36667 6.66669 6.68056 6.53613 6.94167 6.27502C7.20278 6.01391 7.33333 5.70002 7.33333 5.33335C7.33333 4.96669 7.20278 4.6528 6.94167 4.39169C6.68056 4.13058 6.36667 4.00002 6 4.00002C5.63333 4.00002 5.31944 4.13058 5.05833 4.39169C4.79722 4.6528 4.66667 4.96669 4.66667 5.33335C4.66667 5.70002 4.79722 6.01391 5.05833 6.27502C5.31944 6.53613 5.63333 6.66669 6 6.66669Z" fill="url(#paint0_linear_1_473)"/>
<defs>
<linearGradient id="paint0_linear_1_473" x1="2.97143" y1="3.80954" x2="8.9496" y2="15.462" gradientUnits="userSpaceOnUse">
<stop stop-color="#5C6CC1"/>
<stop offset="0.494792" stop-color="#43A4F5"/>
<stop offset="0.953135" stop-color="#2BB5F6"/>
</linearGradient>
</defs>
</svg>
