<svg width="16" height="16" viewBox="0 0 16 16" fill="none" xmlns="http://www.w3.org/2000/svg">
<path d="M8 11.6667C8.83333 11.6667 9.54167 11.375 10.125 10.7917C10.7083 10.2083 11 9.5 11 8.66667C11 7.83333 10.7083 7.125 10.125 6.54167C9.54167 5.95833 8.83333 5.66667 8 5.66667C7.16667 5.66667 6.45833 5.95833 5.875 6.54167C5.29167 7.125 5 7.83333 5 8.66667C5 9.5 5.29167 10.2083 5.875 10.7917C6.45833 11.375 7.16667 11.6667 8 11.6667ZM8 10.3333C7.53333 10.3333 7.13889 10.1722 6.81667 9.85C6.49444 9.52778 6.33333 9.13333 6.33333 8.66667C6.33333 8.2 6.49444 7.80556 6.81667 7.48333C7.13889 7.16111 7.53333 7 8 7C8.46667 7 8.86111 7.16111 9.18333 7.48333C9.50556 7.80556 9.66667 8.2 9.66667 8.66667C9.66667 9.13333 9.50556 9.52778 9.18333 9.85C8.86111 10.1722 8.46667 10.3333 8 10.3333ZM2.66667 14C2.3 14 1.98611 13.8694 1.725 13.6083C1.46389 13.3472 1.33333 13.0333 1.33333 12.6667V4.66667C1.33333 4.3 1.46389 3.98611 1.725 3.725C1.98611 3.46389 2.3 3.33333 2.66667 3.33333H4.76667L5.6 2.43333C5.72222 2.3 5.86944 2.19444 6.04167 2.11667C6.21389 2.03889 6.39444 2 6.58333 2H9.41667C9.60556 2 9.78611 2.03889 9.95833 2.11667C10.1306 2.19444 10.2778 2.3 10.4 2.43333L11.2333 3.33333H13.3333C13.7 3.33333 14.0139 3.46389 14.275 3.725C14.5361 3.98611 14.6667 4.3 14.6667 4.66667V12.6667C14.6667 13.0333 14.5361 13.3472 14.275 13.6083C14.0139 13.8694 13.7 14 13.3333 14H2.66667ZM2.66667 12.6667H13.3333V4.66667H10.6333L9.41667 3.33333H6.58333L5.36667 4.66667H2.66667V12.6667Z" fill="url(#paint0_linear_1_498)"/>
<defs>
<linearGradient id="paint0_linear_1_498" x1="1.68519" y1="2" x2="2.54339" y2="15.0034" gradientUnits="userSpaceOnUse">
<stop stop-color="#2E22AB"/>
<stop offset="0.392635" stop-color="#983ACA"/>
<stop offset="0.777359" stop-color="#F63FA3"/>
<stop offset="1" stop-color="#FFD363"/>
</linearGradient>
</defs>
</svg>
