<svg width="22" height="22" viewBox="0 0 22 22" fill="none" xmlns="http://www.w3.org/2000/svg">
<path d="M11 21C16.5228 21 21 16.5228 21 11C21 5.47715 16.5228 1 11 1C5.47715 1 1 5.47715 1 11C1 16.5228 5.47715 21 11 21Z" stroke="#AAAAAA" stroke-width="2"/>
<path d="M15.4637 5.56272L9.18211 8.41802C8.92785 8.53359 8.86729 8.86752 9.06481 9.06501L12.4911 12.4914C12.6886 12.6888 13.0225 12.6283 13.1381 12.374L15.9934 6.09239C16.1463 5.75592 15.8002 5.40978 15.4637 5.56272Z" stroke="#AAAAAA" stroke-width="2"/>
<path d="M5.56272 15.464L8.41802 9.18229C8.53359 8.92807 8.86752 8.86752 9.06501 9.06499L12.4914 12.4914C12.6888 12.6888 12.6283 13.0228 12.374 13.1384L6.09239 15.9937C5.75592 16.1466 5.40978 15.8005 5.56272 15.464Z" stroke="#AAAAAA" stroke-width="2"/>
</svg>
